<?xml version="1.0" standalone="no"?><svg xmlns="http://www.w3.org/2000/svg" viewBox="0 0 1440 320"><path fill="#181e2a" fill-opacity="1" d="M0,256L24,229.3C48,203,96,149,144,149.3C192,149,240,203,288,229.3C336,256,384,256,432,224C480,192,528,128,576,106.7C624,85,672,107,720,133.3C768,160,816,192,864,208C912,224,960,224,1008,202.7C1056,181,1104,139,1152,122.7C1200,107,1248,117,1296,106.7C1344,96,1392,64,1416,48L1440,32L1440,320L1416,320C1392,320,1344,320,1296,320C1248,320,1200,320,1152,320C1104,320,1056,320,1008,320C960,320,912,320,864,320C816,320,768,320,720,320C672,320,624,320,576,320C528,320,480,320,432,320C384,320,336,320,288,320C240,320,192,320,144,320C96,320,48,320,24,320L0,320Z"></path></svg>